<svg width="20" height="22" viewBox="0 0 20 22" fill="none" xmlns="http://www.w3.org/2000/svg">
<path d="M10.035 16.012C10.035 15.2163 9.71893 14.4533 9.15632 13.8907C8.59371 13.3281 7.83065 13.012 7.035 13.012L6.724 13.01C6.58197 13.0092 6.44336 12.9663 6.32561 12.8869C6.20786 12.8075 6.11623 12.695 6.06225 12.5637C6.00827 12.4323 5.99435 12.2879 6.02224 12.1486C6.05013 12.0094 6.11859 11.8815 6.219 11.781L7.414 10.586C7.78899 10.2109 8.29761 10.0001 8.828 10H10C10.5304 10 11.0391 9.78929 11.4142 9.41421C11.7893 9.03914 12 8.53043 12 8C12 7.46957 11.7893 6.96086 11.4142 6.58579C11.0391 6.21071 10.5304 6 10 6H7.243C6.8489 5.99995 6.45865 6.07756 6.09455 6.22838C5.73045 6.3792 5.39963 6.60029 5.121 6.879L2.414 9.586C1.50877 10.4916 1.00017 11.7196 1 13C1 15.1217 1.84285 17.1566 3.34315 18.6569C4.84344 20.1571 6.87827 21 9 21H11C13.1217 21 15.1566 20.1571 16.6569 18.6569C18.1571 17.1566 19 15.1217 19 13V6C19 5.46957 18.7893 4.96086 18.4142 4.58579C18.0391 4.21071 17.5304 4 17 4C16.4696 4 15.9609 4.21071 15.5858 4.58579C15.2107 4.96086 15 5.46957 15 6V8C15 8.53043 15.2107 9.03914 15.5858 9.41421C15.9609 9.78929 16.4696 10 17 10C17.5304 10 18.0391 9.78929 18.4142 9.41421C18.7893 9.03914 19 8.53043 19 8M11.888 8.662C12.1891 8.8634 12.5392 8.97925 12.901 8.99718C13.2628 9.01511 13.6227 8.93445 13.9422 8.76381C14.2617 8.59316 14.5289 8.33895 14.7152 8.0283C14.9015 7.71765 14.9999 7.36223 15 7V4C15 3.46957 14.7893 2.96086 14.4142 2.58579C14.0391 2.21071 13.5304 2 13 2C12.4696 2 11.9609 2.21071 11.5858 2.58579C11.2107 2.96086 11 3.46957 11 4M7 4C7 3.46957 6.78929 2.96086 6.41421 2.58579C6.03914 2.21071 5.53043 2 5 2C4.46957 2 3.96086 2.21071 3.58579 2.58579C3.21071 2.96086 3 3.46957 3 4V9M7 6V3C7 2.46957 7.21071 1.96086 7.58579 1.58579C7.96086 1.21071 8.46957 1 9 1C9.53043 1 10.0391 1.21071 10.4142 1.58579C10.7893 1.96086 11 2.46957 11 3V6.268" stroke="url(#paint0_linear_610_30)" stroke-width="2" stroke-linecap="round" stroke-linejoin="round"/>
<defs>
<linearGradient id="paint0_linear_610_30" x1="3.7" y1="2.5" x2="18.4908" y2="19.484" gradientUnits="userSpaceOnUse">
<stop stop-color="#3B82F6"/>
<stop offset="1" stop-color="#06B6D4"/>
</linearGradient>
</defs>
</svg>
