<svg width="1399" height="970" viewBox="0 0 1399 970" fill="none" xmlns="http://www.w3.org/2000/svg">
<path fill-rule="evenodd" clip-rule="evenodd" d="M169.5 4.5C206.333 7.66667 280 34.7 280 117.5C280 200.3 203.333 224.333 165 226H41V930.5H1358V45.5L1228 380.5H1192.5L1059.5 45.5V380.5H1021.5V0H1080.5L1210 325.5L1333.5 0H1399V970H0V4.5H169.5ZM41 188L39.5 43.5H165C190.167 45 240.5 61.5 240.5 115.5C240.5 169.5 190.167 186.333 165 188H41Z" fill="#D9D9D9"/>
<path fill-rule="evenodd" clip-rule="evenodd" d="M380 383.5H340L339 3.5H506C544.333 4.16667 621 27.7 621 116.5C622.5 143.667 608 201.5 538 215.5L631.5 383.5H585.5L492 215.5H380V383.5ZM380 178.5V44H520.5C541 46.5 582 64.5 582 116.5C582 168.5 531.333 179.5 506 178.5H380Z" fill="#D9D9D9"/>
<path d="M684 383.5V2.5H942.5V39.5H725.5V158H907V196.5H725.5V343.5H942.5V383.5H684Z" fill="#D9D9D9"/>
<path d="M483.5 533V781H655.5V751H520V533H483.5Z" fill="#D9D9D9"/>
<path d="M689 533V696C690.5 725.667 714.6 785 799 785C874 785 900.833 725.667 899 696V533H865V688C864.833 709 851.4 751 799 751C733.5 751 731.5 714.5 726 696V533H689Z" fill="#D9D9D9"/>
<path fill-rule="evenodd" clip-rule="evenodd" d="M973 533V781H1117C1140.67 777.833 1188 761.1 1188 719.5C1188 667.5 1148 652 1142.5 652C1137 652 1178.5 639.5 1176 595C1173.5 550.5 1128 533 1102 533H973ZM1010 641V562H1097C1106 562 1134.5 566 1138 600.5C1140.8 628.1 1111.83 639 1097 641H1010ZM1010 753.5V670C1032.5 669.333 1081.35 670 1105 670C1132.5 670 1155 691 1151 719.5C1147.8 742.3 1120.33 751.667 1107 753.5H1010Z" fill="#D9D9D9"/>
<path d="M410 591L432.5 568C421 553.833 385.2 526.3 334 529.5C270 533.5 206.5 576.5 206.5 651C206.5 725.5 258.5 784 324 784C389.5 784 395.5 772.5 432.5 746.5L410 723.5C396 736.597 359.2 760.432 324 751C280 739.21 247.5 719 241.5 661.5C235.5 604 289.5 555.5 348.5 562.5C361.5 563.167 392 569.8 410 591Z" fill="#D9D9D9"/>
</svg>
